<svg width="512" height="512" viewBox="0 0 512 512" fill="none" xmlns="http://www.w3.org/2000/svg">
<g clip-path="url(#clip0_35_9)">
<path d="M436.512 74.4C413.013 50.7293 385.045 31.9631 354.233 19.1911C323.421 6.41909 290.378 -0.104215 257.024 8.73813e-06C117.216 8.73813e-06 3.424 113.792 3.424 253.696C3.424 298.4 15.136 342.112 37.312 380.512L1.312 512L135.808 476.704C172.991 496.958 214.651 507.585 256.992 507.616H257.088C396.896 507.616 510.784 393.824 510.784 253.92C510.869 220.577 504.346 187.548 491.593 156.741C478.839 125.933 460.108 97.9584 436.48 74.432L436.512 74.4ZM257.088 464.8C219.301 464.807 182.208 454.649 149.696 435.392L141.984 430.784L62.176 451.68L83.488 373.888L78.496 365.888C57.3042 332.313 46.1054 293.4 46.208 253.696C46.2758 197.763 68.5318 144.141 108.091 104.6C147.651 65.0579 201.283 42.8263 257.216 42.784C313.504 42.784 366.528 64.8 406.304 104.576C425.933 124.134 441.492 147.388 452.081 172.994C462.671 198.6 468.081 226.051 468 253.76C467.904 370.144 373.312 464.8 257.088 464.8ZM372.704 306.816C366.4 303.616 335.2 288.32 329.408 286.208C323.616 284.096 319.392 283.008 315.104 289.408C310.912 295.712 298.72 310.016 295.008 314.304C291.296 318.496 287.616 319.104 281.312 315.904C275.008 312.704 254.496 306.016 230.304 284.416C211.488 267.616 198.72 246.816 195.008 240.512C191.296 234.208 194.592 230.72 197.824 227.616C200.736 224.8 204.128 220.224 207.328 216.512C210.528 212.8 211.52 210.208 213.632 205.92C215.744 201.728 214.72 198.016 213.12 194.816C211.52 191.616 198.816 160.416 193.632 147.712C188.544 135.296 183.232 137.024 179.328 136.8C175.616 136.608 171.424 136.608 167.232 136.608C163.04 136.608 156.128 138.208 150.336 144.512C144.544 150.816 128.128 166.208 128.128 197.408C128.128 228.608 150.816 258.72 154.016 263.008C157.216 267.2 198.72 331.296 262.304 358.72C277.408 365.216 289.216 369.12 298.4 372.128C313.6 376.928 327.392 376.224 338.304 374.624C350.496 372.832 375.808 359.328 381.12 344.512C386.432 329.696 386.432 317.024 384.832 314.4C383.328 311.584 379.136 310.016 372.736 306.784L372.704 306.816Z" fill="white"/>
</g>
<defs>
<clipPath id="clip0_35_9">
<rect width="512" height="512" fill="white"/>
</clipPath>
</defs>
</svg>
