<svg width="172" height="27" viewBox="0 0 172 27" fill="none" xmlns="http://www.w3.org/2000/svg">
<path d="M7.57031 26L0.585937 2H6.99609L10.6172 17.7266H10.8164L14.9531 2H20.1797L24.3164 17.7617H24.5156L28.1484 2H34.5469L27.5742 26H21.9844L17.6602 11.4453H17.4727L13.1484 26H7.57031ZM36.9434 2H44.127L50.2207 16.8594H50.502L56.5957 2H63.7793V26H58.1309V11.2578H57.9316L52.166 25.8477H48.5566L42.791 11.1758H42.5918V26H36.9434V2ZM80.3701 9.19531C80.292 8.33594 79.9443 7.66797 79.3271 7.19141C78.7178 6.70703 77.8467 6.46484 76.7139 6.46484C75.9639 6.46484 75.3389 6.5625 74.8389 6.75781C74.3389 6.95312 73.9639 7.22266 73.7139 7.56641C73.4639 7.90234 73.335 8.28906 73.3271 8.72656C73.3115 9.08594 73.3818 9.40234 73.5381 9.67578C73.7021 9.94922 73.9365 10.1914 74.2412 10.4023C74.5537 10.6055 74.9287 10.7852 75.3662 10.9414C75.8037 11.0977 76.2959 11.2344 76.8428 11.3516L78.9053 11.8203C80.0928 12.0781 81.1396 12.4219 82.0459 12.8516C82.96 13.2812 83.7256 13.793 84.3428 14.3867C84.9678 14.9805 85.4404 15.6641 85.7607 16.4375C86.0811 17.2109 86.2451 18.0781 86.2529 19.0391C86.2451 20.5547 85.8623 21.8555 85.1045 22.9414C84.3467 24.0273 83.2568 24.8594 81.835 25.4375C80.4209 26.0156 78.7139 26.3047 76.7139 26.3047C74.7061 26.3047 72.9561 26.0039 71.4639 25.4023C69.9717 24.8008 68.8115 23.8867 67.9834 22.6602C67.1553 21.4336 66.7295 19.8828 66.7061 18.0078H72.2607C72.3076 18.7812 72.5146 19.4258 72.8818 19.9414C73.249 20.457 73.7529 20.8477 74.3936 21.1133C75.042 21.3789 75.792 21.5117 76.6436 21.5117C77.4248 21.5117 78.0889 21.4062 78.6357 21.1953C79.1904 20.9844 79.6162 20.6914 79.9131 20.3164C80.21 19.9414 80.3623 19.5117 80.3701 19.0273C80.3623 18.5742 80.2217 18.1875 79.9482 17.8672C79.6748 17.5391 79.2529 17.2578 78.6826 17.0234C78.1201 16.7812 77.4014 16.5586 76.5264 16.3555L74.0186 15.7695C71.9404 15.293 70.3037 14.5234 69.1084 13.4609C67.9131 12.3906 67.3193 10.9453 67.3271 9.125C67.3193 7.64062 67.7178 6.33984 68.5225 5.22266C69.3271 4.10547 70.4404 3.23437 71.8623 2.60938C73.2842 1.98437 74.9053 1.67187 76.7256 1.67187C78.585 1.67187 80.1982 1.98828 81.5654 2.62109C82.9404 3.24609 84.0068 4.125 84.7646 5.25781C85.5225 6.39062 85.9092 7.70312 85.9248 9.19531H80.3701ZM99.3428 8V12.2187H87.9873V8H99.3428ZM90.3662 3.6875H96.0967V20.3398C96.0967 20.6914 96.1514 20.9766 96.2607 21.1953C96.3779 21.4062 96.5459 21.5586 96.7646 21.6523C96.9834 21.7383 97.2451 21.7813 97.5498 21.7813C97.7686 21.7813 97.999 21.7617 98.2412 21.7227C98.4912 21.6758 98.6787 21.6367 98.8037 21.6055L99.6709 25.7422C99.3975 25.8203 99.0107 25.918 98.5107 26.0352C98.0186 26.1523 97.4287 26.2266 96.7412 26.2578C95.3975 26.3203 94.2451 26.1641 93.2842 25.7891C92.3311 25.4062 91.6006 24.8125 91.0928 24.0078C90.5928 23.2031 90.3506 22.1914 90.3662 20.9727V3.6875ZM113.88 18.2305V8H119.599V26H114.138V22.6484H113.95C113.552 23.75 112.872 24.625 111.911 25.2734C110.958 25.9141 109.806 26.2344 108.454 26.2344C107.228 26.2344 106.149 25.9531 105.22 25.3906C104.29 24.8281 103.567 24.043 103.052 23.0352C102.536 22.0195 102.274 20.832 102.267 19.4727V8H107.997V18.3477C108.005 19.3242 108.263 20.0937 108.771 20.6562C109.278 21.2187 109.97 21.5 110.845 21.5C111.415 21.5 111.927 21.375 112.38 21.125C112.841 20.8672 113.204 20.4961 113.47 20.0117C113.743 19.5195 113.88 18.9258 113.88 18.2305ZM129.82 26.2578C128.492 26.2578 127.285 25.9141 126.199 25.2266C125.113 24.5391 124.246 23.5078 123.598 22.1328C122.949 20.7578 122.625 19.0508 122.625 17.0117C122.625 14.8945 122.961 13.1523 123.633 11.7852C124.305 10.418 125.184 9.40625 126.27 8.75C127.363 8.09375 128.539 7.76563 129.797 7.76563C130.742 7.76563 131.551 7.92969 132.223 8.25781C132.895 8.57813 133.449 8.99219 133.887 9.5C134.324 10.0078 134.656 10.5352 134.883 11.082H135V2H140.73V26H135.059V23.082H134.883C134.641 23.6367 134.297 24.1562 133.852 24.6406C133.406 25.125 132.848 25.5156 132.176 25.8125C131.512 26.1094 130.727 26.2578 129.82 26.2578ZM131.813 21.793C132.508 21.793 133.102 21.5977 133.594 21.207C134.086 20.8086 134.465 20.25 134.73 19.5312C134.996 18.8125 135.129 17.9687 135.129 17C135.129 16.0156 134.996 15.168 134.73 14.457C134.473 13.7461 134.094 13.1992 133.594 12.8164C133.102 12.4336 132.508 12.2422 131.813 12.2422C131.102 12.2422 130.5 12.4375 130.008 12.8281C129.516 13.2187 129.141 13.7695 128.883 14.4805C128.633 15.1914 128.508 16.0312 128.508 17C128.508 17.9687 128.637 18.8125 128.895 19.5312C129.152 20.25 129.523 20.8086 130.008 21.207C130.5 21.5977 131.102 21.793 131.813 21.793ZM144.354 26V8H150.085V26H144.354ZM147.226 5.90234C146.421 5.90234 145.729 5.63672 145.151 5.10547C144.573 4.56641 144.284 3.91797 144.284 3.16016C144.284 2.41015 144.573 1.76953 145.151 1.23828C145.729 0.699218 146.421 0.429686 147.226 0.429686C148.038 0.429686 148.729 0.699218 149.3 1.23828C149.878 1.76953 150.167 2.41015 150.167 3.16016C150.167 3.91797 149.878 4.56641 149.3 5.10547C148.729 5.63672 148.038 5.90234 147.226 5.90234ZM162.135 26.3398C160.244 26.3398 158.619 25.9531 157.26 25.1797C155.908 24.3984 154.865 23.3125 154.131 21.9219C153.404 20.5234 153.041 18.9023 153.041 17.0586C153.041 15.207 153.404 13.5859 154.131 12.1953C154.865 10.7969 155.908 9.71094 157.26 8.9375C158.619 8.15625 160.244 7.76563 162.135 7.76563C164.025 7.76563 165.646 8.15625 166.998 8.9375C168.357 9.71094 169.4 10.7969 170.127 12.1953C170.861 13.5859 171.229 15.207 171.229 17.0586C171.229 18.9023 170.861 20.5234 170.127 21.9219C169.4 23.3125 168.357 24.3984 166.998 25.1797C165.646 25.9531 164.025 26.3398 162.135 26.3398ZM162.17 22.0156C162.857 22.0156 163.439 21.8047 163.916 21.3828C164.393 20.9609 164.756 20.375 165.006 19.625C165.264 18.875 165.393 18.0078 165.393 17.0234C165.393 16.0234 165.264 15.1484 165.006 14.3984C164.756 13.6484 164.393 13.0625 163.916 12.6406C163.439 12.2187 162.857 12.0078 162.17 12.0078C161.459 12.0078 160.857 12.2187 160.365 12.6406C159.881 13.0625 159.51 13.6484 159.252 14.3984C159.002 15.1484 158.877 16.0234 158.877 17.0234C158.877 18.0078 159.002 18.875 159.252 19.625C159.51 20.375 159.881 20.9609 160.365 21.3828C160.857 21.8047 161.459 22.0156 162.17 22.0156Z" fill="black"/>
</svg>
